HIERARCHY
ROOT Hips
{
	OFFSET 0.000000 0.000000 0.000000
	CHANNELS 6 Xposition Yposition Zposition Xrotation Yrotation Zrotation
	JOINT LeftUpLeg_virtual
	{
		OFFSET 0.000000 0.000000 0.000000
		CHANNELS 3 Xrotation Yrotation Zrotation
		JOINT LeftUpLeg
		{
			OFFSET 15.427100 -6.655098 0.678600
			CHANNELS 3 Xrotation Yrotation Zrotation
			JOINT LeftLeg
			{
				OFFSET 4.081073 -39.591068 13.024000
				CHANNELS 3 Xrotation Yrotation Zrotation
				JOINT LeftFoot
				{
					OFFSET -4.081074 -37.707932 -15.979700
					CHANNELS 3 Xrotation Yrotation Zrotation
					JOINT LeftToeBase
					{
						OFFSET 5.346399 -15.068900 20.645000
						CHANNELS 3 Xrotation Yrotation Zrotation
						JOINT LeftToe_End
						{
							OFFSET 2.754700 0.931300 11.300900
							CHANNELS 3 Xrotation Yrotation Zrotation
							End Site
							{
								OFFSET 0 0 0
							}
						}
					}
				}
			}
		}
	}
	JOINT RightUpLeg_virtual
	{
		OFFSET 0.000000 0.000000 0.000000
		CHANNELS 3 Xrotation Yrotation Zrotation
		JOINT RightUpLeg
		{
			OFFSET -15.569500 -6.655098 0.678600
			CHANNELS 3 Xrotation Yrotation Zrotation
			JOINT RightLeg
			{
				OFFSET -4.081825 -39.591045 13.023800
				CHANNELS 3 Xrotation Yrotation Zrotation
				JOINT RightFoot
				{
					OFFSET 4.081824 -37.707954 -15.979600
					CHANNELS 3 Xrotation Yrotation Zrotation
					JOINT RightToeBase
					{
						OFFSET -5.346400 -15.068900 20.645000
						CHANNELS 3 Xrotation Yrotation Zrotation
						JOINT RightToe_End
						{
							OFFSET -2.754700 0.931300 11.300900
							CHANNELS 3 Xrotation Yrotation Zrotation
							End Site
							{
								OFFSET 0 0 0
							}
						}
					}
				}
			}
		}
	}
	JOINT Spine_virtual
	{
		OFFSET 0.000000 0.000000 0.000000
		CHANNELS 3 Xrotation Yrotation Zrotation
		JOINT Spine
		{
			OFFSET -0.279200 12.230698 -2.892100
			CHANNELS 3 Xrotation Yrotation Zrotation
			JOINT Spine1
			{
				OFFSET -0.232667 10.192268 -1.242267
				CHANNELS 3 Xrotation Yrotation Zrotation
				JOINT Spine1_split
				{
					OFFSET -0.232667 10.192268 -1.242267
					CHANNELS 3 Xrotation Yrotation Zrotation
					JOINT Spine2
					{
						OFFSET -0.232667 10.192268 -1.242267
						CHANNELS 3 Xrotation Yrotation Zrotation
						JOINT Neck_virtual
						{
							OFFSET 0.000000 0.000000 0.000000
							CHANNELS 3 Xrotation Yrotation Zrotation
							JOINT Neck
							{
								OFFSET -0.418800 17.814194 8.416900
								CHANNELS 3 Xrotation Yrotation Zrotation
								JOINT Head
								{
									OFFSET 0.000000 7.031097 3.806800
									CHANNELS 3 Xrotation Yrotation Zrotation
									JOINT HeadTop_End
									{
										OFFSET 0.000000 24.646606 12.978600
										CHANNELS 3 Xrotation Yrotation Zrotation
										End Site
										{
											OFFSET 0 0 0
										}
									}
								}
							}
						}
						JOINT LeftShoulder_virtual
						{
							OFFSET 0.000000 0.000000 0.000000
							CHANNELS 3 Xrotation Yrotation Zrotation
							JOINT LeftShoulder
							{
								OFFSET 8.476499 7.247704 -3.868750
								CHANNELS 3 Xrotation Yrotation Zrotation
								JOINT LeftShoulder_split
								{
									OFFSET 8.476499 7.247704 -3.868750
									CHANNELS 3 Xrotation Yrotation Zrotation
									JOINT LeftArm
									{
										OFFSET 9.308998 -2.777710 0.208600
										CHANNELS 3 Xrotation Yrotation Zrotation
										JOINT LeftForeArm
										{
											OFFSET 29.972298 0.000000 0.000000
											CHANNELS 3 Xrotation Yrotation Zrotation
											JOINT LeftHand
											{
												OFFSET 26.026505 0.000000 0.000000
												CHANNELS 3 Xrotation Yrotation Zrotation
												End Site
												{
													OFFSET 0 0 0
												}
											}
										}
									}
								}
							}
						}
						JOINT RightShoulder_virtual
						{
							OFFSET 0.000000 0.000000 0.000000
							CHANNELS 3 Xrotation Yrotation Zrotation
							JOINT RightShoulder
							{
								OFFSET -7.570500 7.247704 -3.868750
								CHANNELS 3 Xrotation Yrotation Zrotation
								JOINT RightShoulder_split
								{
									OFFSET -7.570500 7.247704 -3.868750
									CHANNELS 3 Xrotation Yrotation Zrotation
									JOINT RightArm
									{
										OFFSET -9.308998 -2.777710 0.208500
										CHANNELS 3 Xrotation Yrotation Zrotation
										JOINT RightForeArm
										{
											OFFSET -29.972300 0.000000 0.000000
											CHANNELS 3 Xrotation Yrotation Zrotation
											JOINT RightHand
											{
												OFFSET -26.026505 0.000000 0.000000
												CHANNELS 3 Xrotation Yrotation Zrotation
												End Site
												{
													OFFSET 0 0 0
												}
											}
										}
									}
								}
							}
						}
					}
				}
			}
		}
	}
}
MOTION
Frames: 6
Frame Time: 0.03333333
0.068648 188.025391 -20.348104 0.000000 0.000000 0.000000 7.809024 -5.821128 0.536474 -78.829440 16.819544 23.559416 90.950253 -0.626728 7.227450 -4.266876 9.997766 -28.425999 18.036318 -2.810759 15.604701 0.000000 0.000000 0.000000 7.809024 -5.821128 0.536474 -96.691908 21.772447 -19.698505 106.212385 -0.692615 4.745478 9.917715 -8.173187 35.961387 -0.868739 3.731888 7.626967 0.000000 0.000000 0.000000 7.809024 -5.821128 0.536474 6.998668 -1.618567 -0.811513 13.996693 -1.811985 -1.211085 0.000000 0.000000 0.000000 0.000000 0.000000 0.000000 13.996685 -1.811981 -1.211085 -24.372379 5.014637 -0.945691 -1.224030 -6.048548 6.641316 0.000000 0.000000 0.000000 13.996685 -1.811981 -1.211085 -1.844328 -14.027009 26.494082 0.000000 0.000000 0.000000 -63.430382 -7.026759 -16.234094 23.387124 -71.240362 49.981829 0.000000 0.000000 0.000000 13.996685 -1.811981 -1.211085 5.983846 16.525180 -13.888777 0.000000 0.000000 0.000000 -72.297156 38.279696 21.699750 -16.158346 59.491392 -20.424327 0.000000 0.000000 0.000000 
0.562754 189.153412 -19.973188 0.000000 0.000000 0.000000 5.211944 -6.926722 0.193893 -85.522834 11.779973 25.961141 94.785117 -4.136792 2.615529 -7.003123 11.027924 -29.015736 17.823177 -1.543950 16.681595 0.000000 0.000000 0.000000 5.211944 -6.926722 0.193893 -104.045344 15.405422 -17.176428 103.430019 -0.612599 1.197937 9.927850 -7.978435 36.878889 2.511562 3.761222 3.542700 0.000000 0.000000 0.000000 5.211944 -6.926722 0.193893 8.447440 -1.147266 -0.498286 16.887417 -1.177193 -1.114028 0.000000 0.000000 0.000000 0.000000 0.000000 0.000000 16.887429 -1.177189 -1.114028 -26.807227 6.493741 -1.451445 4.682591 -9.389108 9.652373 0.000000 0.000000 0.000000 16.887429 -1.177189 -1.114028 -0.612879 -14.977172 27.292794 0.000000 0.000000 0.000000 -67.334757 -8.203789 -15.014245 16.808242 -68.480248 48.052990 0.000000 0.000000 0.000000 16.887429 -1.177189 -1.114028 6.218759 17.756042 -13.894178 0.000000 0.000000 0.000000 -82.947928 43.284524 24.548712 -18.192508 53.742483 -21.031618 0.000000 0.000000 0.000000 
1.269731 190.739944 -19.874758 0.000000 0.000000 0.000000 2.542138 -7.399782 0.280324 -91.682988 10.048381 25.199367 92.274018 -5.546306 0.621014 -5.620279 10.412416 -28.100633 15.821418 -0.277167 14.833996 0.000000 0.000000 0.000000 2.542138 -7.399782 0.280324 -105.486002 6.609569 -15.411612 95.359789 0.993700 -1.361304 6.187630 -8.179175 33.078285 6.672937 3.651653 0.751860 0.000000 0.000000 0.000000 2.542138 -7.399782 0.280324 9.692775 -0.640169 -0.452855 19.380870 -0.593885 -1.137936 0.000000 0.000000 0.000000 0.000000 0.000000 0.000000 19.380865 -0.593885 -1.137935 -27.906167 8.033920 -1.876915 10.220150 -12.179003 11.188150 0.000000 0.000000 0.000000 19.380865 -0.593885 -1.137935 1.416568 -16.917216 27.896846 0.000000 0.000000 0.000000 -71.463921 -13.211100 -13.429059 5.023483 -63.827271 43.312422 0.000000 0.000000 0.000000 19.380865 -0.593885 -1.137935 7.401563 20.145759 -15.002644 0.000000 0.000000 0.000000 -85.334813 46.412215 18.300081 -22.943288 49.160266 -18.542948 0.000000 0.000000 0.000000 
2.009519 191.944794 -20.795717 0.000000 0.000000 0.000000 0.335884 -7.577730 0.546401 -93.540520 11.836387 21.791328 83.382656 -6.319006 0.891955 -2.384400 8.615173 -23.890441 13.718328 0.384937 10.233511 0.000000 0.000000 0.000000 0.335884 -7.577730 0.546401 -101.070612 -2.069433 -14.302950 82.285516 4.458444 -1.974284 1.237908 -7.534162 24.343557 9.719093 3.798734 0.434058 0.000000 0.000000 0.000000 0.335884 -7.577730 0.546401 10.659344 -0.188792 -0.423690 21.316529 -0.290756 -1.141271 0.000000 0.000000 0.000000 0.000000 0.000000 0.000000 21.316524 -0.290757 -1.141270 -27.499853 9.287820 -2.027716 13.878553 -13.401405 11.047126 0.000000 0.000000 0.000000 21.316524 -0.290757 -1.141270 3.604448 -18.354387 29.488017 0.000000 0.000000 0.000000 -73.580767 -16.357437 -9.940292 -5.383959 -59.850106 38.716869 0.000000 0.000000 0.000000 21.316524 -0.290757 -1.141270 8.955282 22.064434 -17.026263 0.000000 0.000000 0.000000 -80.139115 47.684252 5.475434 -28.400651 45.367247 -14.783313 0.000000 0.000000 0.000000 
2.431584 192.127899 -22.393721 0.000000 0.000000 0.000000 -1.323502 -7.775017 0.729621 -90.718559 14.995341 18.114531 71.215732 -8.121316 1.774833 3.128711 6.030392 -15.738960 10.661660 -0.964717 4.048697 0.000000 0.000000 0.000000 -1.323502 -7.775017 0.729621 -93.744572 -9.545959 -13.361582 67.042357 7.565410 -1.147564 -0.514129 -5.239648 15.101649 8.746707 5.421399 2.287672 0.000000 0.000000 0.000000 -1.323502 -7.775017 0.729621 11.262885 0.179698 -0.296199 22.525119 -0.233016 -1.044681 0.000000 0.000000 0.000000 0.000000 0.000000 0.000000 22.525110 -0.233014 -1.044682 -25.698156 10.045503 -1.883915 15.556654 -13.234741 9.919603 0.000000 0.000000 0.000000 22.525110 -0.233014 -1.044682 4.957416 -18.168875 31.734562 0.000000 0.000000 0.000000 -73.124395 -15.655258 -5.604225 -14.257574 -56.993892 32.782541 0.000000 0.000000 0.000000 22.525110 -0.233014 -1.044682 10.130625 22.158370 -19.697086 0.000000 0.000000 0.000000 -74.150023 46.992104 -5.532356 -32.523083 41.786588 -11.731322 0.000000 0.000000 0.000000 
2.371122 190.994568 -23.919134 0.000000 0.000000 0.000000 -2.847881 -7.969022 0.763022 -84.553985 18.917247 15.189905 59.323123 -11.147209 1.931128 5.560222 5.214641 -5.568625 4.046291 -3.570648 -0.781755 0.000000 0.000000 0.000000 -2.847881 -7.969022 0.763022 -86.561023 -16.038281 -12.101867 51.881810 7.779931 -0.298862 6.442608 -1.817562 9.390840 -17.379343 7.288182 9.901514 0.000000 0.000000 0.000000 -2.847881 -7.969022 0.763022 11.508167 0.445416 -0.090370 23.017560 -0.255263 -0.881365 0.000000 0.000000 0.000000 0.000000 0.000000 0.000000 23.017531 -0.255258 -0.881369 -22.914593 10.339470 -1.585265 16.071097 -12.467576 8.595113 0.000000 0.000000 0.000000 23.017531 -0.255258 -0.881369 5.058431 -16.552472 33.912282 0.000000 0.000000 0.000000 -71.568758 -13.168071 -2.777423 -21.755578 -53.568733 25.644487 0.000000 0.000000 0.000000 23.017531 -0.255258 -0.881369 11.038699 20.184396 -23.873263 0.000000 0.000000 0.000000 -71.352159 44.246638 -10.401448 -35.120276 38.850645 -10.056447 0.000000 0.000000 0.000000 
